STARTFONT 2.1
COMMENT converted Oberon font (using FontToBDF by R.Crelier 10.1.91)
FONT Syntax16.Scn.Fnt
SIZE 16 75 75
FONTBOUNDINGBOX  16 19 0 -5
STARTPROPERTIES 3
FONT_ASCENT 14
FONT_DESCENT 5
DEFAULT_CHAR 0
ENDPROPERTIES
CHARS 121
STARTCHAR c0
ENCODING -1 0
SWIDTH 0 0
DWIDTH 0 0
BBX 0 0 0 0
BITMAP
ENDCHAR
STARTCHAR c9
ENCODING -1 9
SWIDTH 645 0
DWIDTH 20 0
BBX 0 0 0 0
BITMAP
ENDCHAR
STARTCHAR c32
ENCODING -1 32
SWIDTH 161 0
DWIDTH 5 0
BBX 0 0 0 0
BITMAP
ENDCHAR
STARTCHAR c33
ENCODING -1 33
SWIDTH 161 0
DWIDTH 5 0
BBX 1 13 2 0
BITMAP
80
80
80
80
80
80
80
80
80
00
00
80
80
ENDCHAR
STARTCHAR c34
ENCODING -1 34
SWIDTH 161 0
DWIDTH 5 0
BBX 3 4 1 9
BITMAP
A0
A0
A0
A0
ENDCHAR
STARTCHAR c35
ENCODING -1 35
SWIDTH 290 0
DWIDTH 9 0
BBX 8 13 0 0
BITMAP
24
24
24
24
FF
24
24
24
FF
24
24
24
24
ENDCHAR
STARTCHAR c36
ENCODING -1 36
SWIDTH 258 0
DWIDTH 8 0
BBX 6 15 1 -1
BITMAP
10
3C
50
90
90
90
50
30
28
24
24
24
28
F0
20
ENDCHAR
STARTCHAR c37
ENCODING -1 37
SWIDTH 387 0
DWIDTH 12 0
BBX 11 13 1 0
BITMAP
7080
8880
8900
8900
8A00
7200
0400
09C0
0A20
1220
1220
2220
21C0
ENDCHAR
STARTCHAR c38
ENCODING -1 38
SWIDTH 322 0
DWIDTH 10 0
BBX 8 13 1 0
BITMAP
18
24
24
24
28
10
28
49
85
85
82
86
79
ENDCHAR
STARTCHAR c39
ENCODING -1 39
SWIDTH 96 0
DWIDTH 3 0
BBX 1 3 1 10
BITMAP
80
80
80
ENDCHAR
STARTCHAR c40
ENCODING -1 40
SWIDTH 193 0
DWIDTH 6 0
BBX 5 17 1 -4
BITMAP
08
10
20
40
40
80
80
80
80
80
80
80
40
40
20
10
08
ENDCHAR
STARTCHAR c41
ENCODING -1 41
SWIDTH 193 0
DWIDTH 6 0
BBX 5 17 1 -4
BITMAP
80
40
20
10
10
08
08
08
08
08
08
08
10
10
20
40
80
ENDCHAR
STARTCHAR c42
ENCODING -1 42
SWIDTH 290 0
DWIDTH 9 0
BBX 7 9 1 0
BITMAP
44
44
28
10
FE
10
28
44
44
ENDCHAR
STARTCHAR c43
ENCODING -1 43
SWIDTH 290 0
DWIDTH 9 0
BBX 7 9 1 0
BITMAP
10
10
10
10
FE
10
10
10
10
ENDCHAR
STARTCHAR c44
ENCODING -1 44
SWIDTH 96 0
DWIDTH 3 0
BBX 1 4 1 -2
BITMAP
80
80
80
80
ENDCHAR
STARTCHAR c45
ENCODING -1 45
SWIDTH 290 0
DWIDTH 9 0
BBX 7 1 1 5
BITMAP
FE
ENDCHAR
STARTCHAR c46
ENCODING -1 46
SWIDTH 96 0
DWIDTH 3 0
BBX 1 2 1 0
BITMAP
80
80
ENDCHAR
STARTCHAR c47
ENCODING -1 47
SWIDTH 225 0
DWIDTH 7 0
BBX 7 13 0 0
BITMAP
02
02
04
04
08
08
10
20
20
40
40
80
80
ENDCHAR
STARTCHAR c48
ENCODING -1 48
SWIDTH 290 0
DWIDTH 9 0
BBX 7 13 1 0
BITMAP
38
44
44
82
82
82
82
82
82
82
44
44
38
ENDCHAR
STARTCHAR c49
ENCODING -1 49
SWIDTH 290 0
DWIDTH 9 0
BBX 4 13 1 0
BITMAP
10
30
50
90
10
10
10
10
10
10
10
10
10
ENDCHAR
STARTCHAR c50
ENCODING -1 50
SWIDTH 290 0
DWIDTH 9 0
BBX 7 13 1 0
BITMAP
F0
08
04
04
04
04
08
08
10
20
40
80
FE
ENDCHAR
STARTCHAR c51
ENCODING -1 51
SWIDTH 290 0
DWIDTH 9 0
BBX 6 13 1 0
BITMAP
F0
08
04
04
04
08
F0
08
04
04
04
08
F0
ENDCHAR
STARTCHAR c52
ENCODING -1 52
SWIDTH 290 0
DWIDTH 9 0
BBX 8 13 0 0
BITMAP
04
0C
14
14
24
44
44
84
FF
04
04
04
04
ENDCHAR
STARTCHAR c53
ENCODING -1 53
SWIDTH 290 0
DWIDTH 9 0
BBX 7 13 1 0
BITMAP
7E
40
40
80
80
F8
04
02
02
02
02
04
F8
ENDCHAR
STARTCHAR c54
ENCODING -1 54
SWIDTH 290 0
DWIDTH 9 0
BBX 7 13 1 0
BITMAP
0E
30
40
40
80
80
B8
C4
82
82
82
44
38
ENDCHAR
STARTCHAR c55
ENCODING -1 55
SWIDTH 290 0
DWIDTH 9 0
BBX 7 13 1 0
BITMAP
FE
02
02
04
04
08
08
10
10
20
20
40
40
ENDCHAR
STARTCHAR c56
ENCODING -1 56
SWIDTH 290 0
DWIDTH 9 0
BBX 7 13 1 0
BITMAP
38
44
82
82
82
44
38
44
82
82
82
44
38
ENDCHAR
STARTCHAR c57
ENCODING -1 57
SWIDTH 290 0
DWIDTH 9 0
BBX 7 13 1 0
BITMAP
38
44
82
82
82
46
3A
02
02
04
04
18
E0
ENDCHAR
STARTCHAR c58
ENCODING -1 58
SWIDTH 96 0
DWIDTH 3 0
BBX 1 9 2 0
BITMAP
80
80
00
00
00
00
00
80
80
ENDCHAR
STARTCHAR c59
ENCODING -1 59
SWIDTH 96 0
DWIDTH 3 0
BBX 1 11 2 -2
BITMAP
80
80
00
00
00
00
00
80
80
80
80
ENDCHAR
STARTCHAR c60
ENCODING -1 60
SWIDTH 290 0
DWIDTH 9 0
BBX 9 9 0 0
BITMAP
0180
0600
1800
6000
8000
6000
1800
0600
0180
ENDCHAR
STARTCHAR c61
ENCODING -1 61
SWIDTH 290 0
DWIDTH 9 0
BBX 7 4 1 3
BITMAP
FE
00
00
FE
ENDCHAR
STARTCHAR c62
ENCODING -1 62
SWIDTH 290 0
DWIDTH 9 0
BBX 9 9 0 0
BITMAP
C000
3000
0C00
0300
0080
0300
0C00
3000
C000
ENDCHAR
STARTCHAR c63
ENCODING -1 63
SWIDTH 225 0
DWIDTH 7 0
BBX 6 13 1 0
BITMAP
F0
08
04
04
04
08
10
20
20
00
00
20
20
ENDCHAR
STARTCHAR c64
ENCODING -1 64
SWIDTH 451 0
DWIDTH 14 0
BBX 12 14 1 -1
BITMAP
1F80
2040
4020
4720
8910
9110
9110
9110
9310
8D20
4120
40C0
2000
1E00
ENDCHAR
STARTCHAR c65
ENCODING -1 65
SWIDTH 322 0
DWIDTH 10 0
BBX 10 13 0 0
BITMAP
0400
0400
0A00
0A00
1100
1100
2100
2080
3F80
4080
4040
8040
8040
ENDCHAR
STARTCHAR c66
ENCODING -1 66
SWIDTH 290 0
DWIDTH 9 0
BBX 6 13 2 0
BITMAP
F0
88
84
84
84
88
F0
88
84
84
84
88
F0
ENDCHAR
STARTCHAR c67
ENCODING -1 67
SWIDTH 322 0
DWIDTH 10 0
BBX 9 13 1 0
BITMAP
0F80
3000
4000
4000
8000
8000
8000
8000
8000
4000
4000
3000
0F80
ENDCHAR
STARTCHAR c68
ENCODING -1 68
SWIDTH 387 0
DWIDTH 12 0
BBX 9 13 2 0
BITMAP
F800
8600
8100
8100
8080
8080
8080
8080
8080
8100
8100
8600
F800
ENDCHAR
STARTCHAR c69
ENCODING -1 69
SWIDTH 290 0
DWIDTH 9 0
BBX 6 13 2 0
BITMAP
FC
80
80
80
80
80
FC
80
80
80
80
80
FC
ENDCHAR
STARTCHAR c70
ENCODING -1 70
SWIDTH 258 0
DWIDTH 8 0
BBX 6 13 2 0
BITMAP
FC
80
80
80
80
80
FC
80
80
80
80
80
80
ENDCHAR
STARTCHAR c71
ENCODING -1 71
SWIDTH 354 0
DWIDTH 11 0
BBX 9 13 1 0
BITMAP
0F00
3000
4000
4000
8000
8000
8000
8080
8080
4080
4080
3180
0E00
ENDCHAR
STARTCHAR c72
ENCODING -1 72
SWIDTH 387 0
DWIDTH 12 0
BBX 8 13 2 0
BITMAP
81
81
81
81
81
81
FF
81
81
81
81
81
81
ENDCHAR
STARTCHAR c73
ENCODING -1 73
SWIDTH 161 0
DWIDTH 5 0
BBX 1 13 2 0
BITMAP
80
80
80
80
80
80
80
80
80
80
80
80
80
ENDCHAR
STARTCHAR c74
ENCODING -1 74
SWIDTH 161 0
DWIDTH 5 0
BBX 3 13 0 0
BITMAP
20
20
20
20
20
20
20
20
20
20
20
20
C0
ENDCHAR
STARTCHAR c75
ENCODING -1 75
SWIDTH 290 0
DWIDTH 9 0
BBX 7 13 2 0
BITMAP
82
84
88
88
90
A0
C0
A0
90
88
88
84
82
ENDCHAR
STARTCHAR c76
ENCODING -1 76
SWIDTH 225 0
DWIDTH 7 0
BBX 5 13 2 0
BITMAP
80
80
80
80
80
80
80
80
80
80
80
80
F8
ENDCHAR
STARTCHAR c77
ENCODING -1 77
SWIDTH 483 0
DWIDTH 15 0
BBX 15 13 0 0
BITMAP
1010
1010
2828
2828
2828
2448
4444
4444
4284
4284
8282
8102
8102
ENDCHAR
STARTCHAR c78
ENCODING -1 78
SWIDTH 387 0
DWIDTH 12 0
BBX 8 13 2 0
BITMAP
81
C1
C1
A1
A1
91
91
89
89
85
83
83
81
ENDCHAR
STARTCHAR c79
ENCODING -1 79
SWIDTH 419 0
DWIDTH 13 0
BBX 11 13 1 0
BITMAP
0E00
3180
4040
4040
8020
8020
8020
8020
8020
4040
4040
3180
0E00
ENDCHAR
STARTCHAR c80
ENCODING -1 80
SWIDTH 258 0
DWIDTH 8 0
BBX 6 13 2 0
BITMAP
F0
88
84
84
84
88
F0
80
80
80
80
80
80
ENDCHAR
STARTCHAR c81
ENCODING -1 81
SWIDTH 419 0
DWIDTH 13 0
BBX 11 16 1 -3
BITMAP
0E00
3180
4040
4040
8020
8020
8020
8020
8020
4040
4040
3180
0E00
0100
0080
0060
ENDCHAR
STARTCHAR c82
ENCODING -1 82
SWIDTH 290 0
DWIDTH 9 0
BBX 6 13 2 0
BITMAP
F0
88
84
84
84
88
F0
A0
90
88
88
84
84
ENDCHAR
STARTCHAR c83
ENCODING -1 83
SWIDTH 290 0
DWIDTH 9 0
BBX 7 13 1 0
BITMAP
3E
40
80
80
80
60
10
0C
02
02
02
04
F8
ENDCHAR
STARTCHAR c84
ENCODING -1 84
SWIDTH 290 0
DWIDTH 9 0
BBX 9 13 0 0
BITMAP
FF80
0800
0800
0800
0800
0800
0800
0800
0800
0800
0800
0800
0800
ENDCHAR
STARTCHAR c85
ENCODING -1 85
SWIDTH 387 0
DWIDTH 12 0
BBX 8 13 2 0
BITMAP
81
81
81
81
81
81
81
81
81
81
81
42
3C
ENDCHAR
STARTCHAR c86
ENCODING -1 86
SWIDTH 322 0
DWIDTH 10 0
BBX 10 13 0 0
BITMAP
8040
8040
8080
4080
4100
4100
2100
2200
2200
1400
1400
0800
0800
ENDCHAR
STARTCHAR c87
ENCODING -1 87
SWIDTH 516 0
DWIDTH 16 0
BBX 15 13 1 0
BITMAP
8102
8102
8104
4284
4284
4488
4488
2448
2850
2850
2850
1020
1020
ENDCHAR
STARTCHAR c88
ENCODING -1 88
SWIDTH 290 0
DWIDTH 9 0
BBX 9 13 0 0
BITMAP
8080
8080
4100
2200
2200
1400
0800
1400
2200
2200
4100
8080
8080
ENDCHAR
STARTCHAR c89
ENCODING -1 89
SWIDTH 258 0
DWIDTH 8 0
BBX 8 13 0 0
BITMAP
81
81
82
42
44
28
28
10
10
10
10
10
10
ENDCHAR
STARTCHAR c90
ENCODING -1 90
SWIDTH 258 0
DWIDTH 8 0
BBX 8 13 0 0
BITMAP
FF
02
02
04
04
08
08
10
20
20
40
40
FF
ENDCHAR
STARTCHAR c91
ENCODING -1 91
SWIDTH 193 0
DWIDTH 6 0
BBX 4 17 2 -4
BITMAP
F0
80
80
80
80
80
80
80
80
80
80
80
80
80
80
80
F0
ENDCHAR
STARTCHAR c92
ENCODING -1 92
SWIDTH 225 0
DWIDTH 7 0
BBX 7 13 0 0
BITMAP
80
80
40
40
20
20
10
08
08
04
04
02
02
ENDCHAR
STARTCHAR c93
ENCODING -1 93
SWIDTH 193 0
DWIDTH 6 0
BBX 4 17 0 -4
BITMAP
F0
10
10
10
10
10
10
10
10
10
10
10
10
10
10
10
F0
ENDCHAR
STARTCHAR c94
ENCODING -1 94
SWIDTH 290 0
DWIDTH 9 0
BBX 9 10 0 0
BITMAP
0800
1C00
2A00
4900
8880
0800
0800
0800
0800
0800
ENDCHAR
STARTCHAR c95
ENCODING -1 95
SWIDTH 129 0
DWIDTH 4 0
BBX 4 1 0 -1
BITMAP
F0
ENDCHAR
STARTCHAR c96
ENCODING -1 96
SWIDTH 290 0
DWIDTH 9 0
BBX 3 3 2 11
BITMAP
80
40
20
ENDCHAR
STARTCHAR c97
ENCODING -1 97
SWIDTH 258 0
DWIDTH 8 0
BBX 5 9 2 0
BITMAP
78
88
08
08
78
88
88
98
68
ENDCHAR
STARTCHAR c98
ENCODING -1 98
SWIDTH 290 0
DWIDTH 9 0
BBX 6 14 2 0
BITMAP
80
80
80
80
80
B8
C4
84
84
84
84
84
88
F0
ENDCHAR
STARTCHAR c99
ENCODING -1 99
SWIDTH 225 0
DWIDTH 7 0
BBX 6 9 1 0
BITMAP
3C
40
80
80
80
80
80
44
38
ENDCHAR
STARTCHAR c100
ENCODING -1 100
SWIDTH 290 0
DWIDTH 9 0
BBX 6 14 2 0
BITMAP
04
04
04
04
04
3C
44
84
84
84
84
84
8C
74
ENDCHAR
STARTCHAR c101
ENCODING -1 101
SWIDTH 258 0
DWIDTH 8 0
BBX 6 9 2 0
BITMAP
38
44
84
FC
80
80
80
84
78
ENDCHAR
STARTCHAR c102
ENCODING -1 102
SWIDTH 161 0
DWIDTH 5 0
BBX 5 14 0 0
BITMAP
18
20
20
20
20
F8
20
20
20
20
20
20
20
20
ENDCHAR
STARTCHAR c103
ENCODING -1 103
SWIDTH 258 0
DWIDTH 8 0
BBX 7 14 1 -5
BITMAP
3E
48
84
84
88
70
40
80
78
44
84
84
88
70
ENDCHAR
STARTCHAR c104
ENCODING -1 104
SWIDTH 290 0
DWIDTH 9 0
BBX 6 14 2 0
BITMAP
80
80
80
80
80
BC
C4
84
84
84
84
84
84
84
ENDCHAR
STARTCHAR c105
ENCODING -1 105
SWIDTH 129 0
DWIDTH 4 0
BBX 1 13 2 0
BITMAP
80
80
00
00
80
80
80
80
80
80
80
80
80
ENDCHAR
STARTCHAR c106
ENCODING -1 106
SWIDTH 129 0
DWIDTH 4 0
BBX 3 18 0 -4
BITMAP
20
20
00
00
20
20
20
20
20
20
20
20
20
20
20
20
20
C0
ENDCHAR
STARTCHAR c107
ENCODING -1 107
SWIDTH 258 0
DWIDTH 8 0
BBX 6 14 2 0
BITMAP
80
80
80
80
80
84
88
90
A0
C0
A0
90
88
84
ENDCHAR
STARTCHAR c108
ENCODING -1 108
SWIDTH 129 0
DWIDTH 4 0
BBX 1 14 2 0
BITMAP
80
80
80
80
80
80
80
80
80
80
80
80
80
80
ENDCHAR
STARTCHAR c109
ENCODING -1 109
SWIDTH 451 0
DWIDTH 14 0
BBX 11 9 2 0
BITMAP
9CE0
A520
C620
8420
8420
8420
8420
8420
8420
ENDCHAR
STARTCHAR c110
ENCODING -1 110
SWIDTH 290 0
DWIDTH 9 0
BBX 6 9 2 0
BITMAP
9C
A4
C4
84
84
84
84
84
84
ENDCHAR
STARTCHAR c111
ENCODING -1 111
SWIDTH 290 0
DWIDTH 9 0
BBX 6 9 2 0
BITMAP
38
44
84
84
84
84
84
88
70
ENDCHAR
STARTCHAR c112
ENCODING -1 112
SWIDTH 290 0
DWIDTH 9 0
BBX 6 14 2 -5
BITMAP
B8
C4
84
84
84
84
84
88
F0
80
80
80
80
80
ENDCHAR
STARTCHAR c113
ENCODING -1 113
SWIDTH 290 0
DWIDTH 9 0
BBX 6 14 2 -5
BITMAP
3C
44
84
84
84
84
84
8C
74
04
04
04
04
04
ENDCHAR
STARTCHAR c114
ENCODING -1 114
SWIDTH 161 0
DWIDTH 5 0
BBX 3 9 2 0
BITMAP
A0
E0
80
80
80
80
80
80
80
ENDCHAR
STARTCHAR c115
ENCODING -1 115
SWIDTH 225 0
DWIDTH 7 0
BBX 6 9 1 0
BITMAP
3C
40
40
40
30
08
08
08
F0
ENDCHAR
STARTCHAR c116
ENCODING -1 116
SWIDTH 161 0
DWIDTH 5 0
BBX 5 12 0 0
BITMAP
20
20
20
F8
20
20
20
20
20
20
28
30
ENDCHAR
STARTCHAR c117
ENCODING -1 117
SWIDTH 290 0
DWIDTH 9 0
BBX 6 9 2 0
BITMAP
84
84
84
84
84
84
8C
94
E4
ENDCHAR
STARTCHAR c118
ENCODING -1 118
SWIDTH 225 0
DWIDTH 7 0
BBX 7 9 0 0
BITMAP
82
82
44
44
44
28
28
10
10
ENDCHAR
STARTCHAR c119
ENCODING -1 119
SWIDTH 419 0
DWIDTH 13 0
BBX 13 9 0 0
BITMAP
8208
8208
4510
4510
4510
28A0
28A0
1040
1040
ENDCHAR
STARTCHAR c120
ENCODING -1 120
SWIDTH 258 0
DWIDTH 8 0
BBX 6 9 1 0
BITMAP
84
84
48
28
30
50
48
84
84
ENDCHAR
STARTCHAR c121
ENCODING -1 121
SWIDTH 225 0
DWIDTH 7 0
BBX 7 14 0 -5
BITMAP
82
82
44
44
44
28
28
10
10
10
20
20
40
40
ENDCHAR
STARTCHAR c122
ENCODING -1 122
SWIDTH 225 0
DWIDTH 7 0
BBX 6 9 1 0
BITMAP
F8
08
10
10
20
40
40
80
FC
ENDCHAR
STARTCHAR c123
ENCODING -1 123
SWIDTH 193 0
DWIDTH 6 0
BBX 5 17 1 -4
BITMAP
08
10
20
20
20
20
20
40
80
40
20
20
20
20
20
10
08
ENDCHAR
STARTCHAR c124
ENCODING -1 124
SWIDTH 129 0
DWIDTH 4 0
BBX 1 17 2 -4
BITMAP
80
80
80
80
80
80
80
80
80
80
80
80
80
80
80
80
80
ENDCHAR
STARTCHAR c125
ENCODING -1 125
SWIDTH 193 0
DWIDTH 6 0
BBX 5 17 1 -4
BITMAP
80
40
20
20
20
20
20
10
08
10
20
20
20
20
20
40
80
ENDCHAR
STARTCHAR c126
ENCODING -1 126
SWIDTH 322 0
DWIDTH 10 0
BBX 9 3 1 3
BITMAP
7080
8880
8700
ENDCHAR
STARTCHAR c128
ENCODING -1 128
SWIDTH 322 0
DWIDTH 10 0
BBX 10 14 0 0
BITMAP
3180
0400
0400
0A00
0A00
1100
1100
2100
2080
3F80
4080
4040
8040
8040
ENDCHAR
STARTCHAR c129
ENCODING -1 129
SWIDTH 419 0
DWIDTH 13 0
BBX 11 14 1 0
BITMAP
60C0
0E00
3180
4040
4040
8020
8020
8020
8020
8020
4040
4040
3180
0E00
ENDCHAR
STARTCHAR c130
ENCODING -1 130
SWIDTH 387 0
DWIDTH 12 0
BBX 8 14 2 0
BITMAP
24
A5
81
81
81
81
81
81
81
81
81
81
42
3C
ENDCHAR
STARTCHAR c131
ENCODING -1 131
SWIDTH 258 0
DWIDTH 8 0
BBX 5 12 2 0
BITMAP
D8
00
00
70
88
08
08
78
88
88
98
68
ENDCHAR
STARTCHAR c132
ENCODING -1 132
SWIDTH 290 0
DWIDTH 9 0
BBX 6 12 2 0
BITMAP
6C
00
00
38
44
84
84
84
84
84
88
70
ENDCHAR
STARTCHAR c133
ENCODING -1 133
SWIDTH 290 0
DWIDTH 9 0
BBX 6 12 2 0
BITMAP
6C
00
00
84
84
84
84
84
84
8C
94
E4
ENDCHAR
STARTCHAR c134
ENCODING -1 134
SWIDTH 258 0
DWIDTH 8 0
BBX 5 14 2 0
BITMAP
20
50
88
00
00
70
88
08
08
78
88
88
98
68
ENDCHAR
STARTCHAR c135
ENCODING -1 135
SWIDTH 258 0
DWIDTH 8 0
BBX 6 13 2 0
BITMAP
10
28
44
00
38
44
84
FC
80
80
80
84
78
ENDCHAR
STARTCHAR c136
ENCODING -1 136
SWIDTH 129 0
DWIDTH 4 0
BBX 3 13 1 0
BITMAP
40
A0
00
00
40
40
40
40
40
40
40
40
40
ENDCHAR
STARTCHAR c137
ENCODING -1 137
SWIDTH 290 0
DWIDTH 9 0
BBX 6 14 2 0
BITMAP
10
28
44
00
00
38
44
84
84
84
84
84
88
70
ENDCHAR
STARTCHAR c138
ENCODING -1 138
SWIDTH 290 0
DWIDTH 9 0
BBX 6 14 2 0
BITMAP
10
28
44
00
00
84
84
84
84
84
84
8C
94
E4
ENDCHAR
STARTCHAR c139
ENCODING -1 139
SWIDTH 258 0
DWIDTH 8 0
BBX 5 14 2 0
BITMAP
40
20
10
00
00
70
88
08
08
78
88
88
98
68
ENDCHAR
STARTCHAR c140
ENCODING -1 140
SWIDTH 258 0
DWIDTH 8 0
BBX 6 14 2 0
BITMAP
20
10
08
00
00
38
44
84
FC
80
80
80
84
78
ENDCHAR
STARTCHAR c141
ENCODING -1 141
SWIDTH 129 0
DWIDTH 4 0
BBX 3 14 1 0
BITMAP
80
40
20
00
00
40
40
40
40
40
40
40
40
40
ENDCHAR
STARTCHAR c142
ENCODING -1 142
SWIDTH 290 0
DWIDTH 9 0
BBX 6 14 2 0
BITMAP
40
20
10
00
00
38
44
84
84
84
84
84
88
70
ENDCHAR
STARTCHAR c143
ENCODING -1 143
SWIDTH 290 0
DWIDTH 9 0
BBX 6 14 2 0
BITMAP
40
20
10
00
00
84
84
84
84
84
84
8C
94
E4
ENDCHAR
STARTCHAR c144
ENCODING -1 144
SWIDTH 258 0
DWIDTH 8 0
BBX 6 14 2 0
BITMAP
08
10
20
00
00
38
44
84
FC
80
80
80
84
78
ENDCHAR
STARTCHAR c145
ENCODING -1 145
SWIDTH 258 0
DWIDTH 8 0
BBX 6 12 2 0
BITMAP
6C
00
00
38
44
84
FC
80
80
80
84
78
ENDCHAR
STARTCHAR c146
ENCODING -1 146
SWIDTH 129 0
DWIDTH 4 0
BBX 3 12 1 0
BITMAP
A0
00
00
40
40
40
40
40
40
40
40
40
ENDCHAR
STARTCHAR c147
ENCODING -1 147
SWIDTH 225 0
DWIDTH 7 0
BBX 6 13 1 -4
BITMAP
3C
40
80
80
80
80
80
44
38
00
30
10
20
ENDCHAR
STARTCHAR c148
ENCODING -1 148
SWIDTH 258 0
DWIDTH 8 0
BBX 5 14 2 0
BITMAP
08
10
20
00
00
70
88
08
08
78
88
88
98
68
ENDCHAR
STARTCHAR c149
ENCODING -1 149
SWIDTH 290 0
DWIDTH 9 0
BBX 6 13 2 0
BITMAP
64
98
00
00
9C
A4
C4
84
84
84
84
84
84
ENDCHAR
STARTCHAR c155
ENCODING -1 155
SWIDTH 290 0
DWIDTH 9 0
BBX 9 1 0 4
BITMAP
FF80
ENDCHAR
STARTCHAR c159
ENCODING -1 159
SWIDTH 290 0
DWIDTH 9 0
BBX 0 0 0 0
BITMAP
ENDCHAR
ENDFONT
